<svg xmlns="http://www.w3.org/2000/svg" width="1200" height="630" viewBox="0 0 1200 630">
  <defs>
    <radialGradient id="glow" cx="0" cy="0" r="1" gradientTransform="translate(900 285) rotate(90) scale(430)" gradientUnits="userSpaceOnUse">
      <stop stop-color="#FF479D" stop-opacity=".35"/>
      <stop offset=".7" stop-color="#FF479D" stop-opacity=".04"/>
      <stop offset="1" stop-color="#080709" stop-opacity="0"/>
    </radialGradient>
    <linearGradient id="pink" x1="0" y1="0" x2="1" y2="1">
      <stop stop-color="#FF75B6"/>
      <stop offset="1" stop-color="#FF298B"/>
    </linearGradient>
    <linearGradient id="card" x1="690" y1="70" x2="1115" y2="560" gradientUnits="userSpaceOnUse">
      <stop stop-color="#201A1F"/>
      <stop offset="1" stop-color="#0D0B0E"/>
    </linearGradient>
    <filter id="shadow" x="-30%" y="-30%" width="160%" height="160%">
      <feDropShadow dx="0" dy="24" stdDeviation="30" flood-color="#000" flood-opacity=".55"/>
    </filter>
    <filter id="pinkShadow" x="-80%" y="-80%" width="260%" height="260%">
      <feDropShadow dx="0" dy="0" stdDeviation="18" flood-color="#FF479D" flood-opacity=".55"/>
    </filter>
    <pattern id="grid" width="48" height="48" patternUnits="userSpaceOnUse">
      <path d="M48 0H0V48" fill="none" stroke="#FFF" stroke-opacity=".035"/>
    </pattern>
    <clipPath id="partial">
      <path d="M780 170H1028V288H925V418H780Z"/>
    </clipPath>
  </defs>

  <rect width="1200" height="630" fill="#080709"/>
  <rect width="1200" height="630" fill="url(#grid)"/>
  <rect width="1200" height="630" fill="url(#glow)"/>
  <path d="M0 600C230 530 366 595 560 630H0Z" fill="#FF479D" fill-opacity=".07"/>

  <g transform="translate(70 62)">
    <circle cx="11" cy="11" r="11" fill="#FF479D" filter="url(#pinkShadow)"/>
    <text x="32" y="18" fill="#FFF" font-family="Arial, Helvetica, sans-serif" font-size="22" font-weight="800">IQ.wiki</text>
    <rect x="128" y="-1" width="120" height="25" rx="5" fill="#FF479D" fill-opacity=".1" stroke="#FF479D" stroke-opacity=".45"/>
    <text x="146" y="16" fill="#FF8CC3" font-family="Arial, Helvetica, sans-serif" font-size="11" font-weight="800" letter-spacing="1.5">LOGO QUIZ</text>
  </g>

  <text x="68" y="190" fill="#FF75B6" font-family="Arial, Helvetica, sans-serif" font-size="15" font-weight="800" letter-spacing="3">HOW WELL DO YOU KNOW CRYPTO?</text>
  <text x="66" y="270" fill="#FFF" font-family="Arial, Helvetica, sans-serif" font-size="72" font-weight="900" letter-spacing="-4">
    <tspan x="66">500 logos.</tspan>
    <tspan x="66" dy="75">No names.</tspan>
  </text>
  <text x="70" y="442" fill="#AAA1A8" font-family="Arial, Helvetica, sans-serif" font-size="24" font-weight="500">
    Identify the project before time runs out.
  </text>

  <g transform="translate(68 490)">
    <rect width="154" height="43" rx="7" fill="#151216" stroke="#332D32"/>
    <text x="22" y="27" fill="#E8DFE4" font-family="Arial, Helvetica, sans-serif" font-size="14" font-weight="800">999 LEVELS</text>
    <rect x="166" width="150" height="43" rx="7" fill="#151216" stroke="#332D32"/>
    <text x="190" y="27" fill="#E8DFE4" font-family="Arial, Helvetica, sans-serif" font-size="14" font-weight="800">TIMED RUNS</text>
    <rect x="328" width="157" height="43" rx="7" fill="url(#pink)"/>
    <text x="353" y="27" fill="#160B11" font-family="Arial, Helvetica, sans-serif" font-size="14" font-weight="900">PLAY NOW →</text>
  </g>

  <g filter="url(#shadow)">
    <rect x="665" y="52" width="465" height="526" rx="22" fill="url(#card)" stroke="#40363E"/>
    <rect x="689" y="77" width="417" height="42" rx="7" fill="#100E10" stroke="#332D32"/>
    <circle cx="709" cy="98" r="5" fill="#51E5A4"/>
    <text x="723" y="103" fill="#D8CFD5" font-family="Arial, Helvetica, sans-serif" font-size="12" font-weight="800" letter-spacing="1">LEVEL 247</text>
    <text x="920" y="103" fill="#FF8CC3" font-family="Arial, Helvetica, sans-serif" font-size="12" font-weight="800">12s LEFT</text>
    <text x="1030" y="103" fill="#FFF" font-family="Arial, Helvetica, sans-serif" font-size="12" font-weight="800">×8 STREAK</text>

    <rect x="689" y="137" width="417" height="300" rx="12" fill="#080709" stroke="#3B3037"/>
    <rect x="689" y="137" width="417" height="300" rx="12" fill="url(#grid)" opacity=".7"/>
    <circle cx="898" cy="287" r="122" fill="#FF479D" fill-opacity=".08"/>
    <circle cx="898" cy="287" r="94" fill="#171217" stroke="#FF479D" stroke-opacity=".25" stroke-width="2"/>

    <g clip-path="url(#partial)" filter="url(#pinkShadow)">
      <circle cx="898" cy="287" r="65" fill="none" stroke="url(#pink)" stroke-width="30"/>
      <path d="M898 208V366M819 287H977" stroke="#FF75B6" stroke-width="20"/>
      <circle cx="898" cy="287" r="25" fill="#080709"/>
    </g>
    <path d="M780 288H1028" stroke="#FF479D" stroke-width="2" stroke-dasharray="6 8" opacity=".7"/>
    <rect x="782" y="397" width="232" height="19" rx="9.5" fill="#292329"/>
    <rect x="782" y="397" width="146" height="19" rx="9.5" fill="url(#pink)"/>
    <text x="1024" y="411" fill="#FF8CC3" font-family="Arial, Helvetica, sans-serif" font-size="11" font-weight="800">PARTIAL REVEAL</text>

    <text x="689" y="474" fill="#FFF" font-family="Arial, Helvetica, sans-serif" font-size="23" font-weight="900">Can you name this project?</text>
    <rect x="689" y="500" width="198" height="51" rx="8" fill="#171317" stroke="#3D343B"/>
    <text x="748" y="532" fill="#D8CFD5" font-family="Arial, Helvetica, sans-serif" font-size="14" font-weight="800">CHAINLINK</text>
    <rect x="908" y="500" width="198" height="51" rx="8" fill="url(#pink)"/>
    <text x="969" y="532" fill="#160B11" font-family="Arial, Helvetica, sans-serif" font-size="14" font-weight="900">UNISWAP</text>
  </g>
</svg>
