<svg xmlns="http://www.w3.org/2000/svg" width="1200" height="630" viewBox="0 0 1200 630">
  <defs>
    <radialGradient id="glow" cx="0" cy="0" r="1" gradientTransform="translate(930 250) rotate(90) scale(430)" gradientUnits="userSpaceOnUse">
      <stop stop-color="#FF5CAA" stop-opacity=".28"/>
      <stop offset=".72" stop-color="#FF5CAA" stop-opacity=".04"/>
      <stop offset="1" stop-color="#F3F4F6" stop-opacity="0"/>
    </radialGradient>
    <linearGradient id="pink" x1="0" y1="0" x2="1" y2="1">
      <stop stop-color="#FF5CAA"/>
      <stop offset="1" stop-color="#FF1A88"/>
    </linearGradient>
    <filter id="shadow" x="-30%" y="-30%" width="160%" height="160%">
      <feDropShadow dx="0" dy="24" stdDeviation="30" flood-color="#0F172A" flood-opacity=".16"/>
    </filter>
    <filter id="pinkShadow" x="-80%" y="-80%" width="260%" height="260%">
      <feDropShadow dx="0" dy="8" stdDeviation="16" flood-color="#FF5CAA" flood-opacity=".32"/>
    </filter>
    <pattern id="grid" width="48" height="48" patternUnits="userSpaceOnUse">
      <path d="M48 0H0V48" fill="none" stroke="#0F172A" stroke-opacity=".045"/>
    </pattern>
    <clipPath id="partial">
      <path d="M780 170H1028V288H925V418H780Z"/>
    </clipPath>
  </defs>

  <rect width="1200" height="630" fill="#F3F4F6"/>
  <rect width="1200" height="630" fill="url(#grid)"/>
  <rect width="1200" height="630" fill="url(#glow)"/>
  <path d="M0 600C230 530 366 595 560 630H0Z" fill="#FF5CAA" fill-opacity=".12"/>

  <g transform="translate(68 58)">
    <circle cx="22" cy="22" r="22" fill="#FF5CAA" filter="url(#pinkShadow)"/>
    <text x="10" y="29" fill="#0F172A" font-family="Arial, Helvetica, sans-serif" font-size="20" font-weight="900">IQ</text>
    <text x="58" y="29" fill="#0F172A" font-family="Arial, Helvetica, sans-serif" font-size="24" font-weight="900">IQ.wiki</text>
    <rect x="157" y="6" width="122" height="32" rx="16" fill="#FFE5F1"/>
    <text x="176" y="27" fill="#FF1A88" font-family="Arial, Helvetica, sans-serif" font-size="11" font-weight="900" letter-spacing="1.5">LOGO QUIZ</text>
  </g>

  <text x="68" y="190" fill="#FF1A88" font-family="Arial, Helvetica, sans-serif" font-size="15" font-weight="900" letter-spacing="3">HOW WELL DO YOU KNOW CRYPTO?</text>
  <text x="64" y="270" fill="#0F172A" font-family="Arial, Helvetica, sans-serif" font-size="72" font-weight="900" letter-spacing="-4">
    <tspan x="64">500 logos.</tspan>
    <tspan x="64" dy="75">No names.</tspan>
  </text>
  <text x="68" y="442" fill="#64748B" font-family="Arial, Helvetica, sans-serif" font-size="24" font-weight="500">
    Identify the project before time runs out.
  </text>

  <g transform="translate(68 490)">
    <rect width="154" height="43" rx="21.5" fill="#FFFFFF" stroke="#E5E7EB"/>
    <text x="22" y="27" fill="#0F172A" font-family="Arial, Helvetica, sans-serif" font-size="14" font-weight="900">999 LEVELS</text>
    <rect x="166" width="150" height="43" rx="21.5" fill="#FFFFFF" stroke="#E5E7EB"/>
    <text x="190" y="27" fill="#0F172A" font-family="Arial, Helvetica, sans-serif" font-size="14" font-weight="900">TIMED RUNS</text>
    <rect x="328" width="157" height="43" rx="21.5" fill="url(#pink)" filter="url(#pinkShadow)"/>
    <text x="353" y="27" fill="#0F172A" font-family="Arial, Helvetica, sans-serif" font-size="14" font-weight="900">PLAY NOW →</text>
  </g>

  <g filter="url(#shadow)">
    <rect x="665" y="52" width="465" height="526" rx="24" fill="#FFFFFF" stroke="#E5E7EB"/>
    <rect x="689" y="77" width="417" height="42" rx="12" fill="#F3F4F6"/>
    <circle cx="709" cy="98" r="5" fill="#22C55E"/>
    <text x="723" y="103" fill="#64748B" font-family="Arial, Helvetica, sans-serif" font-size="12" font-weight="900" letter-spacing="1">LEVEL 247</text>
    <text x="920" y="103" fill="#FF1A88" font-family="Arial, Helvetica, sans-serif" font-size="12" font-weight="900">12s LEFT</text>
    <text x="1030" y="103" fill="#0F172A" font-family="Arial, Helvetica, sans-serif" font-size="12" font-weight="900">×8 STREAK</text>

    <rect x="689" y="137" width="417" height="300" rx="16" fill="#F8FAFC" stroke="#E5E7EB"/>
    <rect x="689" y="137" width="417" height="300" rx="16" fill="url(#grid)" opacity=".7"/>
    <circle cx="898" cy="287" r="122" fill="#FF5CAA" fill-opacity=".12"/>
    <circle cx="898" cy="287" r="94" fill="#FFFFFF" stroke="#FF5CAA" stroke-opacity=".42" stroke-width="2"/>

    <g clip-path="url(#partial)" filter="url(#pinkShadow)">
      <circle cx="898" cy="287" r="65" fill="none" stroke="url(#pink)" stroke-width="30"/>
      <path d="M898 208V366M819 287H977" stroke="#FF5CAA" stroke-width="20"/>
      <circle cx="898" cy="287" r="25" fill="#FFFFFF"/>
    </g>
    <path d="M780 288H1028" stroke="#FF1A88" stroke-width="2" stroke-dasharray="6 8" opacity=".6"/>
    <rect x="782" y="397" width="232" height="19" rx="9.5" fill="#E5E7EB"/>
    <rect x="782" y="397" width="146" height="19" rx="9.5" fill="url(#pink)"/>
    <text x="1024" y="411" fill="#FF1A88" font-family="Arial, Helvetica, sans-serif" font-size="11" font-weight="900">PARTIAL REVEAL</text>

    <text x="689" y="474" fill="#0F172A" font-family="Arial, Helvetica, sans-serif" font-size="23" font-weight="900">Can you name this project?</text>
    <rect x="689" y="500" width="198" height="51" rx="12" fill="#FFFFFF" stroke="#E5E7EB"/>
    <text x="748" y="532" fill="#64748B" font-family="Arial, Helvetica, sans-serif" font-size="14" font-weight="900">CHAINLINK</text>
    <rect x="908" y="500" width="198" height="51" rx="12" fill="url(#pink)"/>
    <text x="969" y="532" fill="#0F172A" font-family="Arial, Helvetica, sans-serif" font-size="14" font-weight="900">UNISWAP</text>
  </g>
</svg>
