<svg xmlns="http://www.w3.org/2000/svg" width="1200" height="630" viewBox="0 0 1200 630">
  <defs>
    <radialGradient id="bg" cx="0" cy="0" r="1" gradientTransform="translate(190 80) rotate(30) scale(1040 720)" gradientUnits="userSpaceOnUse">
      <stop stop-color="#FFE1EF"/>
      <stop offset=".62" stop-color="#FAF6FB"/>
      <stop offset="1" stop-color="#F4EAF3"/>
    </radialGradient>
    <linearGradient id="card" x1="735" y1="90" x2="1090" y2="545" gradientUnits="userSpaceOnUse">
      <stop stop-color="#251B2B"/>
      <stop offset="1" stop-color="#110E17"/>
    </linearGradient>
    <linearGradient id="pink" x1="0" y1="0" x2="1" y2="1">
      <stop stop-color="#FF79B8"/>
      <stop offset="1" stop-color="#F23288"/>
    </linearGradient>
    <filter id="shadow" x="-30%" y="-30%" width="160%" height="160%">
      <feDropShadow dx="0" dy="22" stdDeviation="25" flood-color="#291527" flood-opacity=".22"/>
    </filter>
  </defs>
  <rect width="1200" height="630" fill="url(#bg)"/>
  <circle cx="1122" cy="55" r="175" fill="#FFD2E7" opacity=".75"/>
  <circle cx="92" cy="595" r="180" fill="#F7DCEC" opacity=".8"/>

  <g transform="translate(72 62)">
    <rect width="145" height="42" rx="21" fill="#FFF" stroke="#F4BBD6"/>
    <circle cx="25" cy="21" r="10" fill="#FF5CA8"/>
    <text x="44" y="27" fill="#201825" font-family="Arial, Helvetica, sans-serif" font-size="18" font-weight="700">IQ.wiki</text>
  </g>

  <text x="72" y="205" fill="#211925" font-family="Arial, Helvetica, sans-serif" font-size="70" font-weight="800" letter-spacing="-3">
    <tspan x="72" dy="0">Know crypto</tspan>
    <tspan x="72" dy="76">by sight?</tspan>
  </text>
  <text x="76" y="392" fill="#746B78" font-family="Arial, Helvetica, sans-serif" font-size="25" font-weight="500">
    Identify the logo before time runs out.
  </text>
  <g transform="translate(74 439)">
    <rect width="153" height="39" rx="19.5" fill="#FFF" stroke="#EADCE5"/>
    <text x="23" y="26" fill="#554B59" font-family="Arial, Helvetica, sans-serif" font-size="15" font-weight="700">500 projects</text>
    <rect x="165" width="157" height="39" rx="19.5" fill="#FFF" stroke="#EADCE5"/>
    <text x="188" y="26" fill="#554B59" font-family="Arial, Helvetica, sans-serif" font-size="15" font-weight="700">Timed rounds</text>
    <rect x="334" width="178" height="39" rx="19.5" fill="#FFF" stroke="#EADCE5"/>
    <text x="357" y="26" fill="#554B59" font-family="Arial, Helvetica, sans-serif" font-size="15" font-weight="700">999-level mode</text>
  </g>
  <text x="76" y="550" fill="#D83280" font-family="Arial, Helvetica, sans-serif" font-size="19" font-weight="700">IQ Token Logo Quiz</text>

  <g filter="url(#shadow)">
    <rect x="688" y="65" width="440" height="500" rx="34" fill="url(#card)"/>
    <text x="728" y="112" fill="#FF72B4" font-family="Arial, Helvetica, sans-serif" font-size="15" font-weight="700">LEVEL 247</text>
    <rect x="987" y="91" width="100" height="30" rx="15" fill="#35283A"/>
    <text x="1010" y="112" fill="#F8DDEA" font-family="Arial, Helvetica, sans-serif" font-size="13" font-weight="700">00:12</text>
    <rect x="728" y="147" width="360" height="238" rx="25" fill="#19131F" stroke="#3B2B40"/>
    <circle cx="908" cy="266" r="90" fill="#251B2B"/>
    <path d="M908 183a83 83 0 0 1 72 124l-72-41z" fill="url(#pink)"/>
    <path d="M980 307a83 83 0 0 1-144 0l72-41z" fill="#FFB0D3"/>
    <path d="M836 307a83 83 0 0 1 72-124v83z" fill="#ED3F91"/>
    <circle cx="908" cy="266" r="31" fill="#19131F"/>
    <text x="728" y="430" fill="#F9F4FA" font-family="Arial, Helvetica, sans-serif" font-size="21" font-weight="700">Which project is this?</text>
    <rect x="728" y="455" width="170" height="48" rx="14" fill="#2D2232" stroke="#4D3853"/>
    <text x="758" y="486" fill="#E5D8E8" font-family="Arial, Helvetica, sans-serif" font-size="15" font-weight="700">Chainlink</text>
    <rect x="918" y="455" width="170" height="48" rx="14" fill="url(#pink)"/>
    <text x="965" y="486" fill="#FFF" font-family="Arial, Helvetica, sans-serif" font-size="15" font-weight="700">Uniswap</text>
    <rect x="728" y="517" width="360" height="6" rx="3" fill="#34283A"/>
    <rect x="728" y="517" width="236" height="6" rx="3" fill="#FF5CA8"/>
  </g>
</svg>
